<!--?xml version="1.0" encoding="utf-8"?-->
<!-- Generator: Adobe Illustrator 18.1.1, SVG Export Plug-In . SVG Version: 6.00 Build 0)  -->

<svg version="1.1" id="_x32_" xmlns="http://www.w3.org/2000/svg" xmlns:xlink="http://www.w3.org/1999/xlink" x="0px" y="0px" viewBox="0 0 512 512" style="width: 64px; height: 64px; opacity: 1;" xml:space="preserve">
<style type="text/css">
	.st0{fill:#4B4B4B;}
</style>
<g>
	<path class="st0" d="M475.727,85.335H36.273C16.25,85.335,0,101.586,0,121.608v248.614c0,31.182,25.261,56.442,56.443,56.442
		h399.114c31.182,0,56.443-25.26,56.443-56.442V121.608C512,101.586,495.75,85.335,475.727,85.335z M298.67,148.824
		c0-3.648,2.955-6.602,6.597-6.602h43.694c3.642,0,6.596,2.954,6.596,6.602v43.682c0,3.648-2.954,6.603-6.596,6.603h-43.694
		c-3.642,0-6.597-2.955-6.597-6.603V148.824z M298.67,234.142c0-3.636,2.955-6.591,6.597-6.591h43.694
		c3.642,0,6.596,2.954,6.596,6.591v43.705c0,3.648-2.954,6.602-6.596,6.602h-43.694c-3.642,0-6.597-2.954-6.597-6.602V234.142z
		 M213.33,148.824c0-3.648,2.954-6.602,6.596-6.602h43.705c3.642,0,6.597,2.954,6.597,6.602v43.682c0,3.648-2.955,6.603-6.597,6.603
		h-43.705c-3.642,0-6.596-2.955-6.596-6.603V148.824z M213.33,234.142c0-3.636,2.954-6.591,6.596-6.591h43.705
		c3.642,0,6.597,2.954,6.597,6.591v43.705c0,3.648-2.955,6.602-6.597,6.602h-43.705c-3.642,0-6.596-2.954-6.596-6.602V234.142z
		 M128,148.824c0-3.648,2.954-6.602,6.597-6.602h43.693c3.642,0,6.597,2.954,6.597,6.602v43.682c0,3.648-2.954,6.603-6.597,6.603
		h-43.693c-3.642,0-6.597-2.955-6.597-6.603V148.824z M128,234.142c0-3.636,2.954-6.591,6.597-6.591h43.693
		c3.642,0,6.597,2.954,6.597,6.591v43.705c0,3.648-2.954,6.602-6.597,6.602h-43.693c-3.642,0-6.597-2.954-6.597-6.602V234.142z
		 M99.557,363.188c0,3.636-2.954,6.591-6.597,6.591H49.267c-3.642,0-6.597-2.954-6.597-6.591v-43.705
		c0-3.636,2.955-6.591,6.597-6.591H92.96c3.642,0,6.597,2.954,6.597,6.591V363.188z M99.557,277.847
		c0,3.648-2.954,6.602-6.597,6.602H49.267c-3.642,0-6.597-2.954-6.597-6.602v-43.705c0-3.636,2.955-6.591,6.597-6.591H92.96
		c3.642,0,6.597,2.954,6.597,6.591V277.847z M99.557,192.506c0,3.648-2.954,6.603-6.597,6.603H49.267
		c-3.642,0-6.597-2.955-6.597-6.603v-43.682c0-3.648,2.955-6.602,6.597-6.602H92.96c3.642,0,6.597,2.954,6.597,6.602V192.506z
		 M384,363.188c0,3.636-2.954,6.591-6.597,6.591H134.597c-3.642,0-6.597-2.954-6.597-6.591v-43.705c0-3.636,2.954-6.591,6.597-6.591
		h242.806c3.642,0,6.597,2.954,6.597,6.591V363.188z M469.33,363.188c0,3.636-2.954,6.591-6.597,6.591H419.04
		c-3.641,0-6.597-2.954-6.597-6.591v-43.705c0-3.636,2.956-6.591,6.597-6.591h43.693c3.642,0,6.597,2.954,6.597,6.591V363.188z
		 M469.33,277.847c0,3.648-2.954,6.602-6.597,6.602h-72.136c-3.642,0-6.597-2.954-6.597-6.602V148.824
		c0-3.648,2.954-6.602,6.597-6.602h72.136c3.642,0,6.597,2.954,6.597,6.602V277.847z" style="fill: rgb(75, 75, 75);"></path>
</g>
</svg>
